
<svg xmlns="http://www.w3.org/2000/svg" width="200" height="60" viewBox="0 0 200 60">
  <g fill="none" fill-rule="evenodd">
    <path fill="#35A26B" d="M46.154 11.538v23.077c0 6.375-5.163 11.539-11.538 11.539H11.538C5.163 46.154 0 40.99 0 34.615V11.538C0 5.164 5.163 0 11.538 0h23.078c6.375 0 11.538 5.164 11.538 11.538z"/>
    <path fill="#2C2D2D" d="M65.385 45.006c-1.346 0-2.404-1.04-2.404-2.352V17.346c0-1.313 1.058-2.352 2.404-2.352h14.28c8.366 0 14.375 6.01 14.375 14.04 0 8.03-6.01 15.972-14.375 15.972h-14.28zm14.233-9.006c3.365 0 5.528-3.175 5.528-6.966 0-3.792-2.163-6.04-5.528-6.04h-5.48V36h5.48zm37.74 9.006c-9.233 0-16.694-7.463-16.694-16.695 0-9.23 7.462-16.695 16.693-16.695 9.232 0 16.695 7.464 16.695 16.695 0 9.232-7.463 16.695-16.695 16.695zm0-9.006c4.28 0 7.74-3.462 7.74-7.69 0-4.226-3.46-7.687-7.74-7.687s-7.74 3.462-7.74 7.688c0 4.227 3.46 7.69 7.74 7.69zM156.25 45.006c-1.346 0-2.404-1.04-2.404-2.352V17.346c0-1.313 1.058-2.352 2.404-2.352h14.28c8.366 0 14.375 6.01 14.375 14.04 0 8.03-6.01 15.972-14.375 15.972h-14.28zm14.233-9.006c3.366 0 5.528-3.175 5.528-6.966 0-3.792-2.162-6.04-5.527-6.04h-5.48V36h5.48zm20.22 8.958c-1.394 0-2.407-1.156-2.407-2.55V17.346c0-1.313 1.058-2.352 2.404-2.352h22.12c1.107 0 2.02.896 2.02 2.003 0 1.107-.913 2.003-2.02 2.003h-17.868v6.005h15.05c1.107 0 2.02.895 2.02 2.002 0 1.107-.913 2.003-2.02 2.003h-15.05v7.005h17.868c1.107 0 2.02.896 2.02 2.004 0 1.107-.913 2.003-2.02 2.003h-22.117z"/>
    <path fill="#35A26B" d="M11.538 34.615h23.078c0 6.375-5.163 11.539-11.538 11.539H11.538V34.615z"/>
    <path fill="#2C2D2D" d="M23.077 57.692l-7.73-7.73c.73.192 1.496.296 2.286.296h11.539c.788 0 1.555-.104 2.286-.296l-7.73 7.73a.77.77 0 0 1-1.09 0z"/>
  </g>
</svg>
