<?xml version="1.0" encoding="UTF-8"?>
<svg id="Layer_2" data-name="Layer 2" xmlns="http://www.w3.org/2000/svg" viewBox="0 0 412.85 68.59">
  <defs>
    <style>
      .cls-1 {
        fill: #2d2d2d;
      }

      .cls-2 {
        fill: #35a169;
      }
    </style>
  </defs>
  <g id="Layer_1-2" data-name="Layer 1">
    <polygon class="cls-1" points="275.76 16.79 283.78 41.93 292.23 16.77 301.4 16.96 309.51 41.93 317.35 16.79 327.21 16.79 314.54 55.04 305.03 55.1 296.47 29.62 288.08 55.1 278.66 55.13 265.19 16.79 275.76 16.79"/>
    <path class="cls-1" d="M361.58,20.3v-3.52h9.16v38.33h-9.16v-3.34c-.78.35-1.4,1.01-2.13,1.48-14.49,9.24-32.53-3.21-30.45-19.83,1.96-15.67,20.27-23.25,32.58-13.12M361.28,36.01c0-6.16-5.01-11.16-11.18-11.16s-11.18,5-11.18,11.16,5.01,11.16,11.18,11.16,11.18-5,11.18-11.16"/>
    <path class="cls-1" d="M263.43,39.64h-29.25c1.5,7.93,11.63,10.1,17.68,5.77.98-.7,1.79-1.62,2.67-2.43l7.49,5.37c.19.12.22.28.16.49-.23.84-4.37,4-5.32,4.54-11.73,6.77-29.5,1.85-32.81-12.16-3.58-15.15,9.33-28.33,24.58-25.06,10.81,2.32,16.43,12.97,14.8,23.47M253.21,31.91c-1.37-10.4-16.81-9.89-18.68,0h18.68Z"/>
    <path class="cls-1" d="M218.85,39.64h-29.07c.97,7.59,10.9,9.88,16.8,6.3,1.33-.81,2.31-2.05,3.56-2.96l7.23,5.28c.7.48-.87,1.95-1.32,2.38-10.2,9.77-30.26,6.83-35.68-6.77-7.2-18.09,12.59-35.24,29.28-25.52,7.49,4.36,10.46,12.97,9.22,21.31M208.63,31.91c-1.31-10.39-16.74-9.9-18.68,0h18.68Z"/>
    <path class="cls-1" d="M412.85,55.12h-9.69v-23.65c0-4.04-4.45-7.3-8.35-6.92-3.01.29-6.98,3.37-6.98,6.57v24h-9.87V16.79h9.16v2.81c6.06-6.03,17.37-5.27,22.63,1.42,1.3,1.66,3.1,5.55,3.1,7.63v26.46Z"/>
    <path class="cls-1" d="M124.4,55.12V.08c6.65.19,13.37-.25,20.01,0,1.07.04,2.46.09,3.51.18,35.31,3.15,34.1,52.37-.18,54.86h-23.35ZM134.8,9.66v36.04c0,.19.43.25.61.27,2.63.31,8.07.13,10.76-.19,21.59-2.53,21.92-33.39.33-36.2-2.69-.35-8.44-.52-11.09-.21-.21.02-.54.04-.61.27"/>
    <path class="cls-2" d="M16.36.08h58.6c9.01,0,16.32,7.31,16.32,16.32v29.7c0,5.66-4.59,10.24-10.24,10.24h-4.3c-.06,0-.27-.23-.44-.17v-1.9c0-2.11,1.72-3.83,3.83-3.83h.74c2.56,0,4.66-2.1,4.66-4.66v-28.75c0-6.07-4.96-11.04-11.03-11.04H16.8c-6.08,0-11.05,4.97-11.05,11.05v22.36c0,6.07,4.97,11.04,11.03,11.04h15.72c.16,0,.98.43,1.14.61,1.4,2.14,1.06,2.14,2.44,4.29.11.18.64.87.49,1h-20.27c-9.01,0-16.32-7.3-16.32-16.31v-23.59C0,7.41,7.32.08,16.36.08"/>
    <path class="cls-2" d="M61.03,66.16l-4.46,2.43h-.88l-9.15-12.87c-1.39-2.26.24-5.17,2.89-5.17h18.51c.34,0,.59.45.63.78.09.71-3.94,4.44-4.1,4.78-.04.08-.32.36-.35.36h-6.69c-2.26,0-2.63.51-1.4,2.41"/>
  </g>
</svg>