<?xml version="1.0" encoding="UTF-8" standalone="no"?>
<!DOCTYPE svg PUBLIC "-//W3C//DTD SVG 1.1//EN" "http://www.w3.org/Graphics/SVG/1.1/DTD/svg11.dtd">
<svg width="100%" height="100%" viewBox="0 0 72 72" version="1.1" xmlns="http://www.w3.org/2000/svg" xmlns:xlink="http://www.w3.org/1999/xlink" xml:space="preserve" xmlns:serif="http://www.serif.com/" style="fill-rule:evenodd;clip-rule:evenodd;stroke-linejoin:round;stroke-miterlimit:2;">
    <g transform="matrix(1,0,0,1,0.0323493,-0.0924262)">
        <rect x="-0.032" y="0.092" width="72" height="72" style="fill:rgb(234,246,240);"/>
    </g>
    <g transform="matrix(0.546689,0,0,0.546689,11.0546,17.2295)">
        <g>
            <path d="M16.36,0.08L74.96,0.08C83.97,0.08 91.28,7.39 91.28,16.4L91.28,46.1C91.28,51.76 86.69,56.34 81.04,56.34L76.74,56.34C76.68,56.34 76.47,56.11 76.3,56.17L76.3,54.27C76.3,52.16 78.02,50.44 80.13,50.44L80.87,50.44C83.43,50.44 85.53,48.34 85.53,45.78L85.53,17.03C85.53,10.96 80.57,5.99 74.5,5.99L16.8,5.99C10.72,5.99 5.75,10.96 5.75,17.04L5.75,39.4C5.75,45.47 10.72,50.44 16.78,50.44L32.5,50.44C32.66,50.44 33.48,50.87 33.64,51.05C35.04,53.19 34.7,53.19 36.08,55.34C36.19,55.52 36.72,56.21 36.57,56.34L16.3,56.34C7.29,56.34 -0.02,49.04 -0.02,40.03L-0.02,16.44C0,7.41 7.32,0.08 16.36,0.08" style="fill:rgb(53,161,105);fill-rule:nonzero;"/>
            <path d="M61.03,66.16L56.57,68.59L55.69,68.59L46.54,55.72C45.15,53.46 46.78,50.55 49.43,50.55L67.94,50.55C68.28,50.55 68.53,51 68.57,51.33C68.66,52.04 64.63,55.77 64.47,56.11C64.43,56.19 64.15,56.47 64.12,56.47L57.43,56.47C55.17,56.47 54.8,56.98 56.03,58.88" style="fill:rgb(53,161,105);fill-rule:nonzero;"/>
        </g>
    </g>
</svg>
